<svg width="104" height="45" viewBox="0 0 104 45" fill="none" xmlns="http://www.w3.org/2000/svg">
<path d="M4.35 30C2.99 30 2.31 29.32 2.31 27.96V10.89C2.31 9.53 2.99 8.85 4.35 8.85H15.06C16.1 8.85 16.62 9.35 16.62 10.35C16.62 11.39 16.1 11.91 15.06 11.91H6V17.73H14.4C15.44 17.73 15.96 18.24 15.96 19.26C15.96 20.28 15.44 20.79 14.4 20.79H6V26.94H15.06C16.1 26.94 16.62 27.45 16.62 28.47C16.62 29.49 16.1 30 15.06 30H4.35ZM21.1718 23.46C20.7318 23.46 20.3618 23.32 20.0618 23.04C19.7818 22.74 19.6418 22.38 19.6418 21.96C19.6418 21.52 19.7818 21.16 20.0618 20.88C20.3618 20.6 20.7318 20.46 21.1718 20.46H27.5618C27.9818 20.46 28.3318 20.6 28.6118 20.88C28.9118 21.16 29.0618 21.52 29.0618 21.96C29.0618 22.38 28.9118 22.74 28.6118 23.04C28.3318 23.32 27.9818 23.46 27.5618 23.46H21.1718ZM39.8637 30.3C38.5237 30.3 37.2137 30.15 35.9337 29.85C34.6737 29.55 33.5737 29.1 32.6337 28.5C32.1737 28.2 31.8937 27.83 31.7937 27.39C31.6937 26.95 31.7237 26.54 31.8837 26.16C32.0637 25.76 32.3337 25.49 32.6937 25.35C33.0737 25.19 33.5037 25.26 33.9837 25.56C34.8637 26.08 35.7937 26.46 36.7737 26.7C37.7537 26.94 38.7837 27.06 39.8637 27.06C41.4437 27.06 42.5937 26.8 43.3137 26.28C44.0337 25.74 44.3937 25.05 44.3937 24.21C44.3937 23.51 44.1337 22.96 43.6137 22.56C43.1137 22.16 42.2437 21.83 41.0037 21.57L37.7037 20.88C33.9437 20.08 32.0637 18.15 32.0637 15.09C32.0637 13.77 32.4137 12.62 33.1137 11.64C33.8137 10.66 34.7837 9.9 36.0237 9.36C37.2637 8.82 38.6937 8.55 40.3137 8.55C41.5137 8.55 42.6537 8.7 43.7337 9C44.8137 9.3 45.7837 9.74 46.6437 10.32C47.0437 10.6 47.2837 10.95 47.3637 11.37C47.4437 11.77 47.3937 12.15 47.2137 12.51C47.0337 12.85 46.7437 13.09 46.3437 13.23C45.9637 13.35 45.5137 13.26 44.9937 12.96C44.2537 12.54 43.5037 12.24 42.7437 12.06C41.9837 11.88 41.1637 11.79 40.2837 11.79C38.9037 11.79 37.8237 12.08 37.0437 12.66C36.2637 13.24 35.8737 14 35.8737 14.94C35.8737 15.66 36.1137 16.24 36.5937 16.68C37.0737 17.1 37.8937 17.43 39.0537 17.67L42.3237 18.36C44.3037 18.78 45.7737 19.44 46.7337 20.34C47.7137 21.24 48.2037 22.44 48.2037 23.94C48.2037 25.2 47.8637 26.31 47.1837 27.27C46.5037 28.23 45.5337 28.98 44.2737 29.52C43.0337 30.04 41.5637 30.3 39.8637 30.3ZM52.9995 30.24C51.7595 30.24 51.1395 29.6 51.1395 28.32V10.5C51.1395 9.24 51.7595 8.61 52.9995 8.61C54.2595 8.61 54.8895 9.24 54.8895 10.5V17.46C55.3895 16.66 56.0595 16.06 56.8995 15.66C57.7395 15.24 58.6695 15.03 59.6895 15.03C63.1495 15.03 64.8795 17.04 64.8795 21.06V28.32C64.8795 29.6 64.2595 30.24 63.0195 30.24C61.7595 30.24 61.1295 29.6 61.1295 28.32V21.24C61.1295 20.1 60.9095 19.27 60.4695 18.75C60.0495 18.23 59.3895 17.97 58.4895 17.97C57.3895 17.97 56.5095 18.32 55.8495 19.02C55.2095 19.7 54.8895 20.61 54.8895 21.75V28.32C54.8895 29.6 54.2595 30.24 52.9995 30.24ZM75.3783 30.3C73.8583 30.3 72.5383 29.99 71.4183 29.37C70.2983 28.75 69.4283 27.87 68.8083 26.73C68.1883 25.57 67.8783 24.21 67.8783 22.65C67.8783 21.09 68.1883 19.74 68.8083 18.6C69.4283 17.46 70.2983 16.58 71.4183 15.96C72.5383 15.34 73.8583 15.03 75.3783 15.03C76.8983 15.03 78.2183 15.34 79.3383 15.96C80.4583 16.58 81.3283 17.46 81.9483 18.6C82.5683 19.74 82.8783 21.09 82.8783 22.65C82.8783 24.21 82.5683 25.57 81.9483 26.73C81.3283 27.87 80.4583 28.75 79.3383 29.37C78.2183 29.99 76.8983 30.3 75.3783 30.3ZM75.3783 27.45C76.4983 27.45 77.3983 27.05 78.0783 26.25C78.7583 25.43 79.0983 24.23 79.0983 22.65C79.0983 21.05 78.7583 19.86 78.0783 19.08C77.3983 18.28 76.4983 17.88 75.3783 17.88C74.2583 17.88 73.3583 18.28 72.6783 19.08C71.9983 19.86 71.6583 21.05 71.6583 22.65C71.6583 24.23 71.9983 25.43 72.6783 26.25C73.3583 27.05 74.2583 27.45 75.3783 27.45ZM87.8334 35.64C86.5934 35.64 85.9734 35.01 85.9734 33.75V16.98C85.9734 15.72 86.5834 15.09 87.8034 15.09C89.0434 15.09 89.6634 15.72 89.6634 16.98V17.61C90.0834 16.83 90.7134 16.21 91.5534 15.75C92.3934 15.27 93.3534 15.03 94.4334 15.03C95.7134 15.03 96.8334 15.34 97.7934 15.96C98.7734 16.58 99.5334 17.46 100.073 18.6C100.613 19.72 100.883 21.07 100.883 22.65C100.883 24.21 100.613 25.57 100.073 26.73C99.5334 27.87 98.7834 28.75 97.8234 29.37C96.8634 29.99 95.7334 30.3 94.4334 30.3C93.3934 30.3 92.4534 30.08 91.6134 29.64C90.7934 29.18 90.1634 28.57 89.7234 27.81V33.75C89.7234 35.01 89.0934 35.64 87.8334 35.64ZM93.3834 27.45C94.5034 27.45 95.4034 27.05 96.0834 26.25C96.7634 25.43 97.1034 24.23 97.1034 22.65C97.1034 21.05 96.7634 19.86 96.0834 19.08C95.4034 18.28 94.5034 17.88 93.3834 17.88C92.2634 17.88 91.3634 18.28 90.6834 19.08C90.0034 19.86 89.6634 21.05 89.6634 22.65C89.6634 24.23 90.0034 25.43 90.6834 26.25C91.3634 27.05 92.2634 27.45 93.3834 27.45Z" fill="white"/>
<path fill-rule="evenodd" clip-rule="evenodd" d="M72.4269 39.2638C66.0757 42.6552 56.87 44.4646 48.944 44.4646C37.8305 44.4646 27.8255 41.4868 20.2563 36.5343C19.6617 36.1447 20.1945 35.614 20.9081 35.9173C29.0767 39.3604 39.1769 41.4317 49.6101 41.4317C56.6464 41.4317 64.3868 40.3771 71.504 38.1886C72.5791 37.8577 73.4783 38.6986 72.4269 39.2638Z" fill="#FF9900"/>
<path fill-rule="evenodd" clip-rule="evenodd" d="M75.0674 37.0754C74.2586 36.324 69.7008 36.7203 67.6551 36.8961C67.0319 36.9513 66.9368 36.5583 67.4981 36.2758C71.1281 34.425 77.0845 34.9592 77.779 35.5796C78.4736 36.2034 77.5983 40.5287 74.1871 42.5931C73.6638 42.9102 73.1642 42.7413 73.3974 42.3208C74.1634 40.9354 75.8808 37.8301 75.0674 37.0754Z" fill="#FF9900"/>
</svg>
